#!OML:ASF Y:\EmotionMaleHayes\Project 1\Capture day 1\Session 1\Male1.ASF
:FULLY-SPECIFIED
:DEGREES
577
root 10.4122 17.0708 2.78579 546.572 45.2583 545.471
lowerback 4.97578 4.28372 3.97501
upperback 4.48925 6.05283 -0.855499
thorax 2.36037 3.2406 -3.23738
lowerneck -10.2599 16.8556 20.5751
upperneck 16.7447 25.3259 -19.8441
head 12.5864 11.6195 -5.97713
rclavicle -5.94366e-014 2.78299e-015
rhumerus -48.1947 32.9804 -110.11
rradius 102.867
rwrist -8.96249
rhand -28.228 -41.0463
rfingers 7.12502
rthumb -1.60614 -71.02
lclavicle -5.94366e-014 2.78299e-015
lhumerus -48.1564 -44.8553 111.608
lradius 100.13
lwrist 28.7079
lhand -29.5412 -27.9906
lfingers 7.12502
lthumb -2.87442 1.96973
rfemur 13.3448 -11.0735 22.3157
rtibia 2.56211
rfoot -23.6549 -20.1432
rtoes 3.14991
lfemur -15.2239 -11.0008 -6.15012
ltibia 19.0474
lfoot 3.38014 -19.64
ltoes 11.4982
578
root 10.4101 17.0678 2.82112 546.675 44.9311 545.32
lowerback 4.98274 4.31991 3.99964
upperback 4.42443 6.10004 -0.912896
thorax 2.3026 3.26216 -3.31444
lowerneck -10.1339 16.9201 20.6119
upperneck 16.8541 25.4469 -19.7299
head 12.6156 11.6894 -5.91857
rclavicle -2.03754e-014 2.78299e-015
rhumerus -48.302 32.5846 -110.217
rradius 102.915
rwrist -8.90512
rhand -29.1761 -41.1622
rfingers 7.12502
rthumb -2.52174 -71.127
lclavicle -2.03754e-014 2.78299e-015
lhumerus -47.9358 -44.6203 111.52
lradius 100.046
lwrist 27.6999
lhand -30.6216 -28.9283
lfingers 7.12502
lthumb -3.91771 1.01539
rfemur 12.9316 -12.036 21.9941
rtibia 2.93098
rfoot -23.2612 -19.5733
rtoes 0.653468
lfemur -15.9368 -11.1056 -6.21613
ltibia 19.4945
lfoot 3.48587 -19.3367
ltoes 11.5378
579
root 10.4121 17.0686 2.86288 546.623 44.6501 545.121
lowerback 5.10052 4.33411 3.85866
upperback 4.40318 6.12032 -0.962168
thorax 2.20689 3.26759 -3.29975
lowerneck -9.97928 17.0491 20.6473
upperneck 16.9352 25.6349 -19.5487
head 12.6304 11.7929 -5.81837
rclavicle 4.27387e-015 3.97569e-016
rhumerus -48.3688 32.211 -110.432
rradius 102.903
rwrist -8.59264
rhand -30.2023 -41.3519
rfingers 7.12502
rthumb -3.51283 -71.3027
lclavicle 4.27387e-015 3.97569e-016
lhumerus -47.607 -44.2893 111.176
lradius 100.004
lwrist 26.5639
lhand -31.4439 -29.5467
lfingers 7.12502
lthumb -4.71179 0.380933
rfemur 12.7801 -12.2902 21.9395
rtibia 2.9259
rfoot -23.1752 -19.4805
rtoes 0.241509
lfemur -16.4438 -11.2338 -6.27241
ltibia 19.8797
lfoot 3.73717 -19.1069
ltoes 11.7614
580
root 10.4099 17.0689 2.90913 546.709 44.3274 545.242
lowerback 5.28661 4.34627 3.91196
upperback 4.45761 6.15011 -0.86595
thorax 2.15751 3.28506 -3.24465
lowerneck -9.73676 17.1932 20.5396
upperneck 16.8758 25.8607 -19.3996
head 12.5668 11.9133 -5.70648
rclavicle 2.11706e-014 1.35174e-014
rhumerus -48.2739 31.9847 -110.299
rradius 102.903
rwrist -8.32963
rhand -30.4905 -41.5817
rfingers 7.12502
rthumb -3.79109 -71.5277
lclavicle 2.11706e-014 1.35174e-014
lhumerus -47.1489 -43.8596 110.83
lradius 100.001
lwrist 25.6215
lhand -31.7015 -29.8208
lfingers 7.12502
lthumb -4.96052 0.101182
rfemur 12.6622 -12.0952 22.3467
rtibia 2.83649
rfoot -23.241 -19.6858
rtoes 1.93734
lfemur -16.9092 -11.3824 -6.03624
ltibia 20.3523
lfoot 3.82339 -18.8415
ltoes 12.5633
581
root 10.4045 17.0707 2.95324 546.809 43.8933 545.367
lowerback 5.52225 4.4285 4.14729
upperback 4.46419 6.28259 -0.84449
thorax 2.06939 3.35801 -3.37493
lowerneck -9.40599 17.1416 21.1875
upperneck 16.8397 25.9543 -19.9719
head 12.7171 11.9826 -6.0002
rclavicle 3.46879e-014 7.95139e-016
rhumerus -48.2048 31.6303 -110.005
rradius 103.054
rwrist -8.2722
rhand -30.3799 -41.8807
rfingers 7.12502
rthumb -3.68433 -71.8286
lclavicle 3.46879e-014 7.95139e-016
lhumerus -47.1188 -43.9925 110.803
lradius 100.132
lwrist 25.4042
lhand -32.0124 -30.0471
lfingers 7.12502
lthumb -5.26074 -0.132355
rfemur 12.4184 -12.4431 22.5463
rtibia 3.05736
rfoot -23.2194 -19.5619
rtoes 2.97423
lfemur -17.4398 -11.6233 -5.84019
ltibia 20.7949
lfoot 3.75245 -18.5826
ltoes 12.5521
582
root 10.4163 17.0696 2.99783 547 43.5422 545.468
lowerback 5.56834 4.57173 4.21899
upperback 4.40597 6.4775 -0.880553
thorax 2.01402 3.45504 -3.46198
lowerneck -9.40816 17.0829 21.5407
upperneck 17.1777 25.8919 -19.901
head 12.8747 11.9738 -6.044
rclavicle 5.83433e-014 -2.22639e-014
rhumerus -48.2585 31.2344 -109.962
rradius 103.256
rwrist -8.69801
rhand -30.9028 -42.3148
rfingers 7.12502
rthumb -4.18927 -72.2533
lclavicle 5.83433e-014 -2.22639e-014
lhumerus -47.2447 -44.3291 110.9
lradius 100.156
lwrist 25.4155
lhand -32.628 -30.2094
lfingers 7.12502
lthumb -5.85503 -0.310289
rfemur 12.2057 -12.838 22.8267
rtibia 3.08868
rfoot -23.2097 -19.4516
rtoes 2.76381
lfemur -17.9318 -11.5988 -5.6024
ltibia 21.0365
lfoot 3.99633 -18.612
ltoes 12.1538
